# xmcd
# Track frame offsets:
# 150
# 17553
# 35219
# 53332
# 69655
# 78869
# 92596
# 106178
# 117100
# 131645
#
# Disc length: 2000 seconds
# Revision: 0
# Processed by: cddbd v1.4PL0 Copyright (c) Steve Scherf et al.
# Submitted via: VisiTrax 2.9.5.180 - For more info visit www.synapsa.com
#
DISCID=7507ce0a
DTITLE=Badge - Badge ( demo )
DYEAR=2002
DGENRE=
TTITLE0=Bobby
TTITLE1=You were not allowed
TTITLE2=Wampire
TTITLE3=Prechin
TTITLE4=Low down
TTITLE5=Coffee
TTITLE6=Set Backs
TTITLE7=Hate
TTITLE8=a
TTITLE9=a
EXTD=
EXTT0=
EXTT1=
EXTT2=
EXTT3=
EXTT4=
EXTT5=
EXTT6=
EXTT7=
EXTT8=
EXTT9=
PLAYORDER=
